<svg width="87" height="19" viewBox="0 0 87 19" fill="none" xmlns="http://www.w3.org/2000/svg">
<path d="M34.8494 3.81818V14H33.6165V4.91193H28.4858V14H27.2528V3.81818H34.8494ZM37.1774 16.8636V6.36364H38.3109V7.5767H38.4501C38.5363 7.44413 38.6556 7.27509 38.8081 7.0696C38.9638 6.8608 39.1859 6.67519 39.4743 6.51278C39.7659 6.34706 40.1603 6.2642 40.6575 6.2642C41.3005 6.2642 41.8672 6.42495 42.3578 6.74645C42.8483 7.06794 43.2311 7.52367 43.5062 8.11364C43.7813 8.7036 43.9189 9.39962 43.9189 10.2017C43.9189 11.0104 43.7813 11.7114 43.5062 12.3047C43.2311 12.8946 42.85 13.352 42.3627 13.6768C41.8755 13.9983 41.3137 14.1591 40.6774 14.1591C40.1868 14.1591 39.7941 14.0779 39.4991 13.9155C39.2041 13.7498 38.9771 13.5625 38.818 13.3537C38.6589 13.1416 38.5363 12.9659 38.4501 12.8267H38.3507V16.8636H37.1774ZM38.3308 10.1818C38.3308 10.7585 38.4153 11.2673 38.5843 11.7081C38.7534 12.1456 39.0003 12.4886 39.3251 12.7372C39.6499 12.9825 40.0476 13.1051 40.5183 13.1051C41.0088 13.1051 41.4181 12.9759 41.7463 12.7173C42.0777 12.4555 42.3263 12.1042 42.492 11.6634C42.661 11.2192 42.7456 10.7254 42.7456 10.1818C42.7456 9.64489 42.6627 9.16098 42.497 8.73011C42.3346 8.29593 42.0877 7.95289 41.7562 7.70099C41.4281 7.44579 41.0154 7.31818 40.5183 7.31818C40.041 7.31818 39.64 7.43916 39.3152 7.68111C38.9904 7.91974 38.7451 8.2545 38.5794 8.68537C38.4136 9.11293 38.3308 9.61174 38.3308 10.1818ZM48.8109 14.1591C48.1215 14.1591 47.5166 13.995 46.9963 13.6669C46.4792 13.3388 46.0749 12.8797 45.7832 12.2898C45.4949 11.6998 45.3507 11.0104 45.3507 10.2216C45.3507 9.42614 45.4949 8.73177 45.7832 8.13849C46.0749 7.54522 46.4792 7.08452 46.9963 6.75639C47.5166 6.42827 48.1215 6.2642 48.8109 6.2642C49.5003 6.2642 50.1035 6.42827 50.6206 6.75639C51.1409 7.08452 51.5453 7.54522 51.8336 8.13849C52.1253 8.73177 52.2711 9.42614 52.2711 10.2216C52.2711 11.0104 52.1253 11.6998 51.8336 12.2898C51.5453 12.8797 51.1409 13.3388 50.6206 13.6669C50.1035 13.995 49.5003 14.1591 48.8109 14.1591ZM48.8109 13.1051C49.3346 13.1051 49.7654 12.9709 50.1035 12.7024C50.4416 12.4339 50.6918 12.081 50.8542 11.6435C51.0166 11.206 51.0978 10.732 51.0978 10.2216C51.0978 9.71117 51.0166 9.23556 50.8542 8.79474C50.6918 8.35393 50.4416 7.99763 50.1035 7.72585C49.7654 7.45407 49.3346 7.31818 48.8109 7.31818C48.2872 7.31818 47.8564 7.45407 47.5183 7.72585C47.1802 7.99763 46.93 8.35393 46.7676 8.79474C46.6052 9.23556 46.524 9.71117 46.524 10.2216C46.524 10.732 46.6052 11.206 46.7676 11.6435C46.93 12.081 47.1802 12.4339 47.5183 12.7024C47.8564 12.9709 48.2872 13.1051 48.8109 13.1051ZM57.1644 16.6051V3.81818H58.3377V16.6051H57.1644ZM57.1644 14.1591C56.6474 14.1591 56.1767 14.0663 55.7525 13.8807C55.3282 13.6918 54.9637 13.425 54.6587 13.0803C54.3538 12.7322 54.1185 12.3163 53.9528 11.8324C53.7871 11.3485 53.7042 10.8116 53.7042 10.2216C53.7042 9.625 53.7871 9.08475 53.9528 8.60085C54.1185 8.11364 54.3538 7.69602 54.6587 7.34801C54.9637 7 55.3282 6.73319 55.7525 6.54758C56.1767 6.35866 56.6474 6.2642 57.1644 6.2642H57.5224V14.1591H57.1644ZM57.1644 13.1051H57.3633V7.31818H57.1644C56.7733 7.31818 56.4336 7.39773 56.1452 7.55682C55.8569 7.71259 55.6183 7.92637 55.4293 8.19815C55.2437 8.46662 55.1045 8.77486 55.0117 9.12287C54.9222 9.47088 54.8775 9.83712 54.8775 10.2216C54.8775 10.732 54.9587 11.206 55.1211 11.6435C55.2835 12.081 55.5337 12.4339 55.8718 12.7024C56.2099 12.9709 56.6407 13.1051 57.1644 13.1051ZM58.3377 14.1591H57.9798V6.2642H58.3377C58.8548 6.2642 59.3254 6.35866 59.7496 6.54758C60.1739 6.73319 60.5385 7 60.8434 7.34801C61.1483 7.69602 61.3836 8.11364 61.5494 8.60085C61.7151 9.08475 61.7979 9.625 61.7979 10.2216C61.7979 10.8116 61.7151 11.3485 61.5494 11.8324C61.3836 12.3163 61.1483 12.7322 60.8434 13.0803C60.5385 13.425 60.1739 13.6918 59.7496 13.8807C59.3254 14.0663 58.8548 14.1591 58.3377 14.1591ZM58.3377 13.1051C58.7321 13.1051 59.0719 13.0289 59.3569 12.8764C59.6452 12.7206 59.8822 12.5085 60.0678 12.2401C60.2567 11.9683 60.396 11.66 60.4854 11.3153C60.5782 10.9673 60.6246 10.6027 60.6246 10.2216C60.6246 9.71117 60.5434 9.23556 60.381 8.79474C60.2186 8.35393 59.9684 7.99763 59.6303 7.72585C59.2923 7.45407 58.8614 7.31818 58.3377 7.31818H58.1388V13.1051H58.3377ZM64.7647 12.2699L68.4437 6.36364H69.796V14H68.6227V8.09375L64.9636 14H63.5914V6.36364H64.7647V12.2699ZM71.2688 14V12.9062H71.5472C71.7759 12.9062 71.9665 12.8615 72.119 12.772C72.2714 12.6792 72.3941 12.5185 72.4869 12.2898C72.583 12.0578 72.6559 11.7363 72.7056 11.3253C72.7586 10.911 72.7968 10.384 72.82 9.74432L72.9592 6.36364H78.0501V14H76.8768V7.45739H74.0728L73.9535 10.1818C73.927 10.8082 73.8706 11.3601 73.7844 11.8374C73.7016 12.3113 73.574 12.709 73.4016 13.0305C73.2326 13.352 73.0072 13.594 72.7255 13.7564C72.4438 13.9188 72.0908 14 71.6665 14H71.2688ZM81.217 9.12784H83.4045C84.2994 9.12784 84.9838 9.35488 85.4577 9.80895C85.9317 10.263 86.1687 10.8381 86.1687 11.5341C86.1687 11.9915 86.0626 12.4074 85.8505 12.782C85.6384 13.1532 85.3268 13.4498 84.9158 13.6719C84.5049 13.8906 84.0011 14 83.4045 14H80.2028V6.36364H81.3761V12.9062H83.4045C83.8685 12.9062 84.2496 12.7836 84.5479 12.5384C84.8462 12.2931 84.9954 11.9782 84.9954 11.5938C84.9954 11.1894 84.8462 10.8596 84.5479 10.6044C84.2496 10.3492 83.8685 10.2216 83.4045 10.2216H81.217V9.12784Z" fill="#5C5C5C"/>
<path fill-rule="evenodd" clip-rule="evenodd" d="M0 10C0 5.1211 4.1211 1 9 1C13.8789 1 18 5.1211 18 10C18 12.871 16.5672 15.4702 14.4 17.1316V17.2H14.3082C12.807 18.3205 10.9683 19 9 19C7.0317 19 5.193 18.3205 3.6918 17.2H3.6V17.1316C1.4328 15.4702 0 12.8701 0 10ZM6.41112 14.7124C5.93239 15.0975 5.59923 15.6344 5.4666 16.2343C6.5178 16.8436 7.7256 17.2 9 17.2C10.2744 17.2 11.4822 16.8436 12.5334 16.2343C12.4006 15.6344 12.0674 15.0977 11.5887 14.7126C11.11 14.3275 10.5144 14.1169 9.9 14.1157H8.1C7.48557 14.1168 6.88986 14.3272 6.41112 14.7124ZM12.391 13.0705C13.129 13.5617 13.7057 14.2596 14.049 15.0769C15.3693 13.7638 16.2 11.9584 16.2 10C16.2 6.0967 12.9033 2.8 9 2.8C5.0967 2.8 1.8 6.0967 1.8 10C1.8 11.9584 2.6307 13.7638 3.951 15.0769C4.2943 14.2596 4.87104 13.5617 5.60904 13.0705C6.34704 12.5794 7.21351 12.3168 8.1 12.3157H9.9C10.7865 12.3168 11.653 12.5794 12.391 13.0705ZM5.40001 8.2C5.40001 6.148 6.94801 4.6 9.00001 4.6C11.052 4.6 12.6 6.148 12.6 8.2C12.6 10.252 11.052 11.8 9.00001 11.8C6.94801 11.8 5.40001 10.252 5.40001 8.2ZM7.20001 8.2C7.20001 9.2602 7.93981 10 9.00001 10C10.0602 10 10.8 9.2602 10.8 8.2C10.8 7.1398 10.0602 6.4 9.00001 6.4C7.93981 6.4 7.20001 7.1398 7.20001 8.2Z" fill="#9B9B9B"/>
</svg>
